PathFileType  4	(X/Y/Z) C:\Users\antoi\Documents\MyRepositories\mobilecap\ResultsAnalysis
DataRate	CameraRate	NumFrames	NumMarkers	Units	OrigDataRate	OrigDataStartFrame	OrigNumFrames
100.0	100.0	4	51	mm	100.0	1	341
Frame#	Time	r_knee			r_shank_antsup			r_ankle			r_calc			r_5meta			r_toe			L_knee			L_shank_antsup			L_ankle			L_calc			L_5meta			L_toe			r_sh2			r_sh3			r_sh4			L_sh2			L_sh3			r_thigh1			r_thigh2			r_thigh3			r_thigh4			r_thigh5			L_thigh1			L_thigh2			L_thigh3			L_thigh4			r.ASIS			r.PSIS			L.ASIS			L.PSIS			C7			R_Shoulder			L_Shoulder			R_Sternum			L_Sternum			R_humerus			R_elbow_med			R_elbow_lat			R_forearm			R_wrist_radius			R_wrist_ulna			L_humerus			L_elbow_med			L_elbow_lat			L_forearm			L_wrist_radius			L_wrist_ulna			R_HJC			L_HJC			R_HJC_reg			L_HJC_reg			
		X1	Y1	Z1	X2	Y2	Z2	X3	Y3	Z3	X4	Y4	Z4	X5	Y5	Z5	X6	Y6	Z6	X7	Y7	Z7	X8	Y8	Z8	X9	Y9	Z9	X10	Y10	Z10	X11	Y11	Z11	X12	Y12	Z12	X13	Y13	Z13	X14	Y14	Z14	X15	Y15	Z15	X16	Y16	Z16	X17	Y17	Z17	X18	Y18	Z18	X19	Y19	Z19	X20	Y20	Z20	X21	Y21	Z21	X22	Y22	Z22	X23	Y23	Z23	X24	Y24	Z24	X25	Y25	Z25	X26	Y26	Z26	X27	Y27	Z27	X28	Y28	Z28	X29	Y29	Z29	X30	Y30	Z30	X31	Y31	Z31	X32	Y32	Z32	X33	Y33	Z33	X34	Y34	Z34	X35	Y35	Z35	X36	Y36	Z36	X37	Y37	Z37	X38	Y38	Z38	X39	Y39	Z39	X40	Y40	Z40	X41	Y41	Z41	X42	Y42	Z42	X43	Y43	Z43	X44	Y44	Z44	X45	Y45	Z45	X46	Y46	Z46	X47	Y47	Z47	X48	Y48	Z48	X49	Y49	Z49	X50	Y50	Z50	X51	Y51	Z51	

1	0.00000000	-1179.64805	806.83396	-422.42467	-1216.74888	760.76833	-394.08411	-1236.63809	407.27100	-454.72610	-1293.84716	365.78752	-510.36185	-1118.56646	347.63364	-409.88879	-1074.32263	367.91827	-463.66547	-1180.93443	805.05493	-747.20862	-1164.04209	718.44702	-754.24280	-1238.96228	404.16962	-705.43866	-1298.27709	365.90626	-654.62562	-1120.33386	351.26840	-734.45447	-1075.90541	369.62938	-679.68561	-1225.47922	647.33696	-392.06153	-1147.27547	759.57452	-429.55686	-1157.30039	644.95459	-442.49897	-1249.16685	736.09345	-769.88315	-1260.79624	614.75122	-762.27343	-1069.20494	1091.24024	-482.43420	-1065.55856	981.57617	-469.05764	-1089.42589	965.84339	-406.61398	-1131.48874	1101.50001	-393.30471	-1136.73776	987.39755	-385.39804	-1107.04111	1127.28726	-758.68014	-1121.08166	983.76031	-770.44575	-1222.01867	1132.44983	-765.30757	-1233.24487	992.32318	-748.61541	-1076.99974	1276.90916	-455.51954	-1266.67664	1310.33996	-537.66008	-1070.73352	1264.20472	-694.57123	-1264.04212	1310.31116	-637.23418	-1218.75310	1782.93641	-593.92921	-1157.21831	1736.33739	-425.35362	-1166.18404	1730.60829	-752.67661	-1117.55294	1679.08202	-573.04358	-1116.22616	1677.42357	-610.41480	-1166.96260	1498.30248	-340.63079	-1230.46856	1407.87057	-368.92847	-1193.09229	1409.24670	-317.14877	-1109.86887	1288.79405	-325.00064	-1058.19429	1202.76105	-357.86130	-1082.34082	1189.32518	-322.74965	-1182.70762	1496.64502	-831.12862	-1231.24447	1393.59145	-784.81522	-1210.23450	1398.49856	-843.73729	-1132.11271	1275.72605	-853.62293	-1077.87048	1182.73106	-828.04495	-1113.53293	1167.00198	-850.24946	-1152.09206	1195.03810	-491.99484	-1158.32104	1196.65148	-682.55762	-1146.43012	1198.85457	-490.58887	-1142.24987	1198.80888	-648.58446	
2	0.01000000	-1179.53928	806.96344	-422.37269	-1216.70992	760.64755	-394.28104	-1236.63722	407.28015	-454.71041	-1293.82703	365.76625	-510.37169	-1118.58862	347.62057	-409.88963	-1074.32000	367.89432	-463.66102	-1180.90998	805.05147	-747.21271	-1164.02217	718.45342	-754.25544	-1238.96955	404.15559	-705.42739	-1298.25179	365.89959	-654.65085	-1120.33050	351.26231	-734.44974	-1075.83977	369.67252	-679.72313	-1225.45063	647.42417	-392.01558	-1147.06119	759.54966	-429.50746	-1157.19835	644.90597	-442.52045	-1249.15313	736.11167	-769.86968	-1260.78578	614.78787	-762.34630	-1068.99165	1091.33756	-481.97714	-1065.40666	981.58537	-469.07162	-1089.29621	965.87084	-406.58961	-1131.37611	1101.50928	-393.25413	-1136.50858	987.40648	-385.35817	-1106.58123	1127.40379	-758.27116	-1121.12789	983.71165	-770.39024	-1221.94992	1132.49381	-765.42891	-1233.16305	992.33020	-748.63483	-1076.87238	1276.88356	-455.61377	-1266.63333	1310.39379	-537.79420	-1070.70011	1264.19859	-694.57998	-1264.01716	1310.31533	-637.28353	-1218.54891	1782.98391	-594.00702	-1157.01742	1736.16064	-425.75579	-1165.94596	1730.57745	-752.82184	-1117.43667	1678.98885	-573.13512	-1116.17138	1677.35062	-610.41799	-1166.89339	1498.35217	-340.66844	-1230.46017	1408.03054	-368.89403	-1193.10403	1409.31712	-317.16650	-1109.82092	1288.78696	-324.92364	-1058.19424	1202.83433	-357.38743	-1082.30910	1189.34838	-322.63833	-1183.12480	1496.52974	-830.98350	-1231.68556	1393.61579	-784.67803	-1210.78344	1398.25402	-843.47892	-1132.68178	1275.67159	-853.71820	-1077.70048	1183.00961	-828.46050	-1113.73152	1167.32116	-850.34979	-1152.04672	1195.04782	-492.06078	-1158.28897	1196.64852	-682.62323	-1146.38306	1198.94758	-490.62410	-1142.22988	1198.82324	-648.56129	
3	0.02000000	-1179.34429	806.93495	-422.43703	-1216.46107	760.62652	-394.29202	-1236.68949	407.23930	-454.75410	-1293.81298	365.76807	-510.38507	-1118.56276	347.64440	-409.89176	-1074.32915	367.86824	-463.68355	-1180.87276	805.05555	-747.21451	-1163.99331	718.45760	-754.25533	-1238.97745	404.13824	-705.41977	-1298.25775	365.87552	-654.64641	-1120.34237	351.25440	-734.45415	-1075.76143	369.71450	-679.73491	-1225.15232	646.68454	-392.00022	-1146.91382	759.53439	-429.49690	-1157.11110	644.86667	-442.53154	-1249.13337	736.11624	-769.85525	-1260.77808	614.78717	-762.31371	-1068.81898	1091.36334	-481.79131	-1065.25572	981.55800	-469.10252	-1089.09997	965.87062	-406.60054	-1131.20587	1101.52533	-393.20993	-1136.29870	987.44499	-385.35412	-1107.03084	1127.42802	-758.63641	-1121.15405	983.64021	-770.33319	-1221.91189	1132.48996	-765.42423	-1233.20428	992.36549	-748.15343	-1076.73865	1276.87247	-455.65490	-1266.55253	1310.47197	-537.87973	-1070.67003	1264.19115	-694.58026	-1263.95895	1310.40950	-637.07209	-1218.30160	1783.04807	-594.06881	-1156.82470	1736.10929	-425.88483	-1165.73552	1730.55033	-752.91072	-1117.34036	1678.92796	-573.19877	-1116.08913	1677.31200	-610.48473	-1166.86657	1498.36734	-340.68858	-1230.47031	1408.09363	-368.89275	-1193.12716	1409.35544	-317.18872	-1109.84882	1288.85282	-324.82814	-1057.95288	1203.06845	-356.76625	-1082.25779	1189.40862	-322.49298	-1183.45116	1496.54203	-831.11101	-1232.25902	1393.70667	-784.64130	-1211.34888	1398.16707	-843.44270	-1133.28112	1275.64139	-853.87084	-1077.59049	1183.43128	-828.89210	-1114.11724	1167.23388	-849.41206	-1151.97947	1195.07415	-492.05097	-1158.29812	1196.68625	-682.61072	-1146.31613	1198.96226	-490.66096	-1142.18841	1198.86449	-648.56961	
4	0.03000000	-1179.09364	806.81814	-422.57343	-1215.61954	761.11042	-394.13757	-1236.74081	407.21251	-454.74681	-1293.78731	365.79007	-510.43174	-1118.51439	347.66195	-409.90477	-1074.33165	367.85330	-463.70630	-1180.82898	805.06312	-747.20604	-1163.94766	718.45220	-754.19773	-1238.97777	404.12797	-705.41794	-1298.28610	365.84373	-654.62204	-1120.35171	351.24665	-734.46116	-1075.70853	369.74303	-679.74121	-1224.87179	646.16735	-391.97071	-1146.76604	759.54382	-429.49504	-1157.04121	644.85153	-442.54642	-1249.10457	736.11197	-769.83564	-1260.75816	614.77724	-762.24676	-1068.66796	1091.32984	-481.77010	-1065.11667	981.53164	-469.17436	-1088.91491	965.86887	-406.62866	-1131.00734	1101.55987	-393.13336	-1136.11804	987.48856	-385.36399	-1107.95824	1127.38056	-759.39618	-1121.10787	983.59081	-770.30122	-1221.91125	1132.43960	-765.27057	-1233.32931	992.42779	-747.36352	-1076.63172	1276.89251	-455.68113	-1266.39947	1310.52634	-537.90611	-1070.64129	1264.19276	-694.57625	-1263.98724	1310.56672	-636.61601	-1218.01008	1783.12471	-594.10728	-1156.64266	1736.10049	-425.84199	-1165.54391	1730.54751	-752.93173	-1117.24524	1678.88896	-573.23766	-1115.98968	1677.29639	-610.58834	-1166.91637	1498.34986	-340.67558	-1230.51906	1408.08799	-368.93613	-1193.20907	1409.35410	-317.23517	-1109.90319	1288.94257	-324.72670	-1057.57293	1203.40922	-356.17727	-1082.17123	1189.54202	-322.33324	-1183.70256	1496.64431	-831.40565	-1232.90443	1393.84970	-784.66432	-1211.93515	1398.20655	-843.41672	-1133.87191	1275.66251	-853.99894	-1077.47573	1183.99790	-829.26096	-1114.53159	1166.93355	-847.88315	-1151.88218	1195.11062	-491.97877	-1158.36123	1196.75529	-682.53284	-1146.09685	1198.88792	-490.63216	-1142.24038	1198.95429	-648.52695	
